<?xml version="1.0" standalone="no"?>
<!DOCTYPE svg PUBLIC "-//W3C//DTD SVG 20010904//EN"
 "http://www.w3.org/TR/2001/REC-SVG-20010904/DTD/svg10.dtd">
<svg version="1.0" xmlns="http://www.w3.org/2000/svg"
 width="1280.000000pt" height="1280.000000pt" viewBox="0 0 1280.000000 1280.000000"
 preserveAspectRatio="xMidYMid meet">
<metadata>
Created by potrace 1.16, written by Peter Selinger 2001-2019
</metadata>
<g transform="translate(0.000000,1280.000000) scale(0.100000,-0.100000)"
fill="#000000" stroke="none">
<path d="M1359 10354 c-8 -11 -24 -32 -34 -49 -21 -33 -23 -36 -63 -85 -16
-19 -31 -43 -35 -52 -4 -10 -11 -18 -17 -18 -6 0 -9 -4 -5 -9 3 -5 -3 -16 -14
-23 -11 -8 -27 -30 -37 -51 -10 -20 -21 -37 -26 -37 -5 0 -13 -11 -18 -25 -5
-14 -14 -25 -20 -25 -6 0 -9 -4 -6 -9 3 -5 -1 -12 -9 -15 -8 -3 -14 -9 -13
-13 4 -10 -40 -81 -69 -113 -13 -14 -23 -29 -23 -34 0 -5 -11 -23 -24 -40 -12
-17 -34 -51 -47 -76 -14 -25 -38 -65 -54 -90 -41 -64 -260 -503 -323 -647
-284 -656 -463 -1395 -512 -2111 -13 -195 -13 -685 0 -867 20 -280 57 -551
114 -837 113 -565 294 -1085 572 -1638 64 -129 132 -251 195 -355 10 -16 28
-46 39 -65 11 -19 30 -51 43 -71 12 -19 31 -50 42 -67 10 -18 23 -32 27 -32 4
0 8 -5 8 -10 0 -6 9 -20 20 -32 10 -12 17 -25 14 -30 -3 -4 2 -11 10 -14 9 -3
13 -10 10 -15 -3 -5 2 -12 10 -15 9 -3 16 -10 16 -15 0 -6 5 -15 10 -22 6 -7
24 -28 40 -47 16 -19 30 -40 30 -46 0 -6 9 -19 20 -29 11 -10 20 -24 20 -30 0
-7 7 -15 15 -19 8 -3 15 -11 15 -18 0 -7 12 -23 28 -36 15 -13 20 -21 12 -17
-10 4 -9 2 3 -8 9 -8 17 -20 17 -26 0 -7 4 -10 9 -6 6 3 14 -3 20 -12 7 -13
10 312 11 1052 l0 1071 -55 168 c-308 940 -345 1977 -105 2943 27 110 75 277
105 369 l55 169 -2 1073 c-3 975 -4 1072 -19 1056z"/>
<path d="M10581 6400 l0 -3295 25 30 c91 108 300 417 406 600 393 677 625
1412 700 2220 16 181 16 709 0 890 -92 997 -421 1878 -998 2675 -45 63 -94
129 -108 145 l-25 30 0 -3295z"/>
<path d="M7955 9218 c-1987 -1263 -3266 -2076 -3662 -2327 -249 -157 -452
-288 -452 -291 0 -3 56 -40 125 -84 l125 -78 47 29 c50 31 3778 2399 4190
2660 l242 155 0 159 c0 87 -3 159 -7 159 -5 0 -278 -172 -608 -382z"/>
</g>
</svg>
